<?xml version="1.0" encoding="utf-8"?>
<!-- Generator: Adobe Illustrator 19.2.1, SVG Export Plug-In . SVG Version: 6.00 Build 0)  -->
<svg version="1.1" id="Слой_1" xmlns="http://www.w3.org/2000/svg" xmlns:xlink="http://www.w3.org/1999/xlink" x="0px" y="0px"
	 viewBox="0 0 200 187.8" style="enable-background:new 0 0 200 187.8;" xml:space="preserve">
<style type="text/css">
	.st0{display:none;fill:#292929;}
	.st1{display:none;fill:#FFFFFF;}
	.st2{display:none;}
	.st3{display:inline;}
	.st4{fill:#FFFFFF;}
	.st5{fill:#292929;}
</style>
<path id="play" class="st0" d="M186.6,50C159,2.2,97.8-14.2,50,13.4C2.2,41-14.2,102.2,13.4,150c27.6,47.8,88.8,64.2,136.6,36.6
	C197.8,159,214.2,97.8,186.6,50z M140,169.3c-38.3,22.1-87.2,9-109.3-29.3C8.6,101.7,21.8,52.8,60,30.7c38.3-22.1,87.2-9,109.3,29.3
	C191.4,98.3,178.2,147.2,140,169.3z M136,95.9L83.6,65.4c-4.8-2.8-8.6-0.6-8.6,5l0.3,60.6c0,5.5,3.9,7.8,8.7,5l52-30
	C140.8,103.2,140.8,98.7,136,95.9z"/>
<path id="next" class="st1" d="M196.9,58L112,1.9c-6.5-4.3-11.8-1.1-11.8,7.1v108.9c0,8.2,5.3,11.4,11.8,7.1l84.8-56.1
	c0,0,3.2-2.3,3.2-5.4C200,60.3,196.9,58,196.9,58z M93.7,58L11.8,1.9C5.3-2.4,0,0.8,0,9v108.9c0,8.2,5.3,11.4,11.8,7.1l81.9-56.1
	c0,0,3.2-2.3,3.2-5.4C96.9,60.3,93.7,58,93.7,58z"/>
<path id="previous" class="st1" d="M3.2,68.9L88,125c6.5,4.3,11.8,1.1,11.8-7.1V9c0-8.2-5.3-11.4-11.8-7.1L3.2,58
	c0,0-3.2,2.3-3.2,5.4C0,66.6,3.2,68.9,3.2,68.9z M106.3,68.9l81.8,56.1c6.5,4.3,11.8,1.1,11.8-7.1V9c0-8.2-5.3-11.4-11.8-7.1
	L106.3,58c0,0-3.2,2.3-3.2,5.4C103.2,66.6,106.3,68.9,106.3,68.9z"/>
<g id="pause" class="st2">
	<g class="st3">
		<path class="st4" d="M100,0C44.8,0,0,44.8,0,100c0,55.2,44.8,100,100,100s100-44.8,100-100C200,44.8,155.2,0,100,0z M100,181.9
			c-45.2,0-81.9-36.7-81.9-81.9c0-45.2,36.7-81.9,81.9-81.9c45.2,0.1,81.8,36.7,81.9,81.9C181.9,145.2,145.2,181.9,100,181.9z
			 M70,140h20V60H70V140z M110,140h20V60h-20V140z"/>
	</g>
</g>
<path class="st1" d="M161.8,187.8L100,155.7l-61.8,32.1L50,119.8L0,71.7l69.1-9.9L100,0l30.9,61.8l69.1,9.9l-50,48.1L161.8,187.8z"
	/>
<path class="st5" d="M161.8,187.8L100,155.7l-61.8,32.1L50,119.8L0,71.7l69.1-9.9L100,0l30.9,61.8l69.1,9.9l-50,48.1L161.8,187.8z
	 M17.9,77.5L58.9,117l-9.7,55.8l50.8-26.3l50.8,26.3l-9.7-55.8l41.1-39.5l-56.8-8.2L100,18.6L74.6,69.3L17.9,77.5z"/>
</svg>
