<?xml version="1.0" encoding="utf-8"?>
<!-- Generator: Adobe Illustrator 19.2.1, SVG Export Plug-In . SVG Version: 6.00 Build 0)  -->
<svg version="1.1" id="Слой_1" xmlns="http://www.w3.org/2000/svg" xmlns:xlink="http://www.w3.org/1999/xlink" x="0px" y="0px"
	 viewBox="0 0 170.7 200" style="enable-background:new 0 0 170.7 200;" xml:space="preserve">
<style type="text/css">
	.st0{fill:#FFFFFF;}
</style>
<g>
	<g>
		<path class="st0" d="M98.1,83.3c-3.6,0-6.6-1.2-9.1-3.6c-2.5-2.4-3.7-5.4-3.7-8.8V0H12.8C9.2,0,6.2,1.2,3.7,3.6
			C1.2,6.1,0,9,0,12.5v174.8c0,3.5,1.2,6.4,3.7,8.8c2.5,2.4,5.5,3.6,9.1,3.6h145.1c3.6,0,6.6-1.2,9.1-3.6c2.5-2.4,3.7-5.4,3.7-8.8
			V83.3H98.1z M136.5,162.3c0,1.2-0.4,2.2-1.2,3c-0.8,0.8-1.8,1.2-3.1,1.2H38.4c-1.2,0-2.3-0.4-3.1-1.2c-0.8-0.8-1.2-1.8-1.2-3V154
			c0-1.2,0.4-2.2,1.2-3c0.8-0.8,1.8-1.2,3.1-1.2h93.9c1.2,0,2.3,0.4,3.1,1.2s1.2,1.8,1.2,3V162.3z M136.5,129c0,1.2-0.4,2.2-1.2,3
			c-0.8,0.8-1.8,1.2-3.1,1.2H38.4c-1.2,0-2.3-0.4-3.1-1.2c-0.8-0.8-1.2-1.8-1.2-3v-8.3c0-1.2,0.4-2.2,1.2-3c0.8-0.8,1.8-1.2,3.1-1.2
			h93.9c1.2,0,2.3,0.4,3.1,1.2c0.8,0.8,1.2,1.8,1.2,3V129z M161.6,49.4L120,8.8c-4.4-4.3-10.3-7.2-17.6-8.5v66.2h67.9
			C168.9,59.5,166.1,53.8,161.6,49.4z"/>
	</g>
</g>
</svg>
