<?xml version="1.0" encoding="utf-8"?>
<!-- Generator: Adobe Illustrator 19.2.1, SVG Export Plug-In . SVG Version: 6.00 Build 0)  -->
<svg version="1.1" id="Слой_1" xmlns="http://www.w3.org/2000/svg" xmlns:xlink="http://www.w3.org/1999/xlink" x="0px" y="0px"
	 viewBox="0 0 170.7 158.9" style="enable-background:new 0 0 170.7 158.9;" xml:space="preserve">
<style type="text/css">
	.st0{fill:#FFFFFF;}
</style>
<path class="st0" d="M153.4,0H17C7.8,0,0,7.8,0,17v93.7c0,9.2,7.8,17,17,17h81.1l27.6,30.3c0.5,0.6,1.3,0.9,2.1,0.9
	c0.3,0,0.7-0.1,1-0.2c1.1-0.4,1.8-1.5,1.8-2.6v-28.4h22.7c9.2,0,17-7.8,17-17V17C170.5,7.8,162.7,0,153.4,0z M34.1,36.9h42.6
	c1.6,0,2.8,1.3,2.8,2.8c0,1.6-1.3,2.8-2.8,2.8H34.1c-1.6,0-2.8-1.3-2.8-2.8C31.3,38.2,32.5,36.9,34.1,36.9z M130.7,88H34.1
	c-1.6,0-2.8-1.3-2.8-2.8c0-1.6,1.3-2.8,2.8-2.8h96.6c1.6,0,2.8,1.3,2.8,2.8C133.5,86.7,132.3,88,130.7,88z M130.7,65.3H34.1
	c-1.6,0-2.8-1.3-2.8-2.8c0-1.6,1.3-2.8,2.8-2.8h96.6c1.6,0,2.8,1.3,2.8,2.8C133.5,64,132.3,65.3,130.7,65.3z"/>
</svg>
