<?xml version="1.0" encoding="utf-8"?>
<!-- Generator: Adobe Illustrator 19.2.1, SVG Export Plug-In . SVG Version: 6.00 Build 0)  -->
<svg version="1.1" id="Слой_1" xmlns="http://www.w3.org/2000/svg" xmlns:xlink="http://www.w3.org/1999/xlink" x="0px" y="0px"
	 viewBox="0 0 126.3 200" style="enable-background:new 0 0 126.3 200;" xml:space="preserve">
<style type="text/css">
	.st0{fill:#FFFFFF;}
</style>
<path class="st0" d="M123.2,3.1C121.1,1,118.6,0,115.8,0c-2.9,0-5.3,1-7.4,3.1L53.6,57.9H10.5c-2.9,0-5.3,1-7.4,3.1
	C1,63.1,0,65.6,0,68.4v63.2c0,2.9,1,5.3,3.1,7.4c2.1,2.1,4.6,3.1,7.4,3.1h43.1l54.8,54.8c2.1,2.1,4.6,3.1,7.4,3.1
	c2.9,0,5.3-1,7.4-3.1c2.1-2.1,3.1-4.6,3.1-7.4V10.5C126.3,7.7,125.3,5.2,123.2,3.1z"/>
</svg>
