<?xml version="1.0" encoding="utf-8"?>
<!-- Generator: Adobe Illustrator 19.2.1, SVG Export Plug-In . SVG Version: 6.00 Build 0)  -->
<svg version="1.1" id="Слой_1" xmlns="http://www.w3.org/2000/svg" xmlns:xlink="http://www.w3.org/1999/xlink" x="0px" y="0px"
	 viewBox="0 0 200 113.1" style="enable-background:new 0 0 200 113.1;" xml:space="preserve">
<style type="text/css">
	.st0{fill:#FFFFFF;}
</style>
<path class="st0" d="M191.6,91.6c-6-7.1-13-13.2-19.6-19.7c-6-5.8-6.4-9.2-1.5-15.9c5.2-7.3,10.9-14.4,16.2-21.7
	c4.9-6.8,10-13.7,12.6-21.8c1.7-5.2,0.2-7.5-5.1-8.4c-0.9-0.2-1.9-0.2-2.8-0.2l-31.7,0c-3.9-0.1-6.1,1.6-7.4,5.1
	c-1.9,4.7-3.8,9.3-6,13.9c-5,10.2-10.7,20.1-18.5,28.5c-1.7,1.8-3.7,4.2-6.6,3.2c-3.6-1.3-4.7-7.3-4.6-9.3l0-36.6
	c-0.7-5.2-1.9-7.6-7-8.6L76.5,0c-4.4,0-6.6,1.7-8.9,4.4c-1.4,1.6-1.8,2.6,1,3.1c5.5,1,8.5,4.6,9.4,10c1.3,8.7,1.2,17.5,0.5,26.3
	c-0.2,2.6-0.7,5.1-1.7,7.5c-1.6,3.8-4.2,4.5-7.5,2.2c-3.1-2.1-5.2-5.1-7.3-8C53.9,34.5,47.7,22.5,42.5,9.9c-1.5-3.7-4-5.9-7.9-5.9
	c-9.5-0.2-19-0.2-28.5,0C0.4,4-1.3,6.8,1,12c10.3,23,21.9,45.4,36.9,65.8c7.7,10.5,16.6,19.7,28,26.3c13,7.4,26.9,9.7,41.7,9
	c6.9-0.3,9-2.1,9.3-9c0.2-4.7,0.7-9.4,3.1-13.6c2.3-4.1,5.7-4.9,9.7-2.4c2,1.3,3.7,2.9,5.2,4.7c3.9,4.2,7.6,8.6,11.6,12.7
	c5,5.1,11,8.2,18.6,7.6l29.1,0c4.7-0.3,7.1-6.1,4.4-11.3C196.7,98.1,194.2,94.8,191.6,91.6z"/>
</svg>
